# xmcd
# 
# Track frame offsets:
#     150
#     14832
#     33259
#     49709
#     70081
#     93346
#     115848
# 
# Disc length: 1950
# 
# Revision: 0
# Processed by: cddbd v1.5.2PL0 Copyright (c) Steve Scherf et al.
# Submitted via: fre:ac v1.0.17
# 
DISCID=55079c07
DTITLE=OISIN and MALACHY - PUP
DYEAR=0
DGENRE=
TTITLE0=TV 
TTITLE1=LEAVING SONG 
TTITLE2=DALLAS 
TTITLE3=WASH OVER YOU
TTITLE4=WOMAN 
TTITLE5=RAINCLOUD 3296 3244
TTITLE6=PUP 
EXTD=
EXTT0=
EXTT1=
EXTT2=
EXTT3=
EXTT4=
EXTT5=
EXTT6=
PLAYORDER=
